<?xml version="1.0" encoding="UTF-8"?>
<svg width="166px" height="49px" viewBox="0 0 166 49" version="1.1" xmlns="http://www.w3.org/2000/svg" xmlns:xlink="http://www.w3.org/1999/xlink">
    <!-- Generator: sketchtool 52.2 (67145) - http://www.bohemiancoding.com/sketch -->
    <title>67B3CB03-001B-40D3-A16F-1C258F155319</title>
    <desc>Created with sketchtool.</desc>
    <g id="desktop" stroke="none" stroke-width="1" fill="none" fill-rule="evenodd">
        <g id="define-desktop" transform="translate(-409.000000, -48.000000)">
            <g id="1" transform="translate(409.000000, -202.000000)">
                <g id="Define_Logo_Horizontal_Color" transform="translate(0.000000, 250.000000)">
                    <path d="M66.848765,28.2180442 C66.848765,30.6804972 68.3656337,32.6226298 71.0197504,32.6226298 C73.2603468,32.6226298 75.6042561,31.4783039 75.6042561,28.2180442 C75.6042561,25.3389558 73.2947844,23.8126464 71.0197504,23.8126464 C68.4686775,23.8126464 66.848765,25.6510939 66.848765,28.2180442 Z M80.6716953,12.5399392 L80.6716953,36.7849227 L76.22494,36.7849227 L75.9147326,34.5999558 C74.3289887,36.6463149 72.3985997,37.0976022 70.261316,37.0976022 C65.2630211,37.0976022 61.85047,33.5593149 61.85047,28.2180442 C61.85047,22.6680497 65.3321653,19.3035635 70.3304603,19.3035635 C72.3297245,19.3035635 74.2256759,19.9278398 75.6734003,21.7313646 L75.6734003,12.5399392 L80.6716953,12.5399392 Z" id="Fill-1" fill="#233881"></path>
                    <path d="M97.0093776,26.2057956 C96.9060648,24.3326961 95.0101135,23.4658564 92.9422431,23.4658564 C90.9424408,23.4658564 89.4258412,24.5064972 88.9429076,26.2057956 L97.0093776,26.2057956 Z M88.9429076,29.847768 C89.184778,31.5126851 90.7699838,32.8657348 93.562389,32.8657348 C94.9062626,32.8657348 96.7680454,32.553326 97.9747066,31.5126851 L100.766843,34.634337 C98.9397666,36.4384033 96.0098801,37.1666354 93.4593452,37.1666354 C87.2885575,37.1666354 83.909906,33.524663 83.909906,28.0442431 C83.909906,22.8415801 87.3918703,19.1996077 92.9422431,19.1996077 C98.733141,19.1996077 102.525044,22.8415801 101.456133,29.847768 L88.9429076,29.847768 Z" id="Fill-2" fill="#233881"></path>
                    <path d="M106.452814,36.7849227 L106.452814,24.1597072 L103.454052,24.1597072 L103.454052,19.9624917 L106.452814,19.9624917 L106.452814,18.9567735 C106.452814,13.996674 110.037822,12.054 113.34706,12.054 C115.243011,12.054 116.587423,12.5743204 118.069585,13.5107348 L116.380528,17.0140994 C115.587656,16.5284309 114.691472,16.3205193 113.933037,16.3205193 C112.450875,16.3205193 111.41694,17.1527072 111.41694,18.9567735 L111.41694,19.9624917 L116.139196,19.9624917 L116.139196,24.1597072 L111.41694,24.1597072 L111.41694,36.7849227 L106.452814,36.7849227" id="Fill-3" fill="#233881"></path>
                    <path d="M118.757799,36.7849227 L123.721656,36.7849227 L123.721656,19.6154309 L118.757799,19.6154309 L118.757799,36.7849227 Z M124.066301,15.1063481 C124.066301,18.8522762 118.412885,18.8522762 118.412885,15.1063481 C118.412885,11.3604199 124.066301,11.3604199 124.066301,15.1063481 Z" id="Fill-4" fill="#233881"></path>
                    <g id="Group-9">
                        <path d="M140.197358,36.7849227 L140.197358,27.7318343 C140.197358,25.0963923 139.06011,23.7433425 136.681494,23.7433425 C134.372023,23.7084199 132.820716,25.7203978 132.820716,27.940558 L132.820716,36.7849227 L127.926003,36.7849227 L127.926003,19.6503536 L132.406927,19.6503536 L132.579653,21.8353204 C134.096253,19.8588066 136.026373,19.1996077 138.094781,19.233989 C141.921391,19.233989 145.195922,21.0380552 145.195922,27.6977238 L145.195922,36.7849227 L140.197358,36.7849227" id="Fill-5" fill="#233881"></path>
                        <path d="M161.292003,26.2057956 C161.18869,24.3326961 159.292739,23.4658564 157.2246,23.4658564 C155.225066,23.4658564 153.708467,24.5064972 153.225533,26.2057956 L161.292003,26.2057956 Z M153.225533,29.847768 C153.467404,31.5126851 155.052609,32.8657348 157.845015,32.8657348 C159.189426,32.8657348 161.050671,32.553326 162.257063,31.5126851 L165.049199,34.634337 C163.222123,36.4384033 160.292506,37.1666354 157.741702,37.1666354 C151.571183,37.1666354 148.192801,33.524663 148.192801,28.0442431 C148.192801,22.8415801 151.674227,19.1996077 157.2246,19.1996077 C163.015767,19.1996077 166.807669,22.8415801 165.738759,29.847768 L153.225533,29.847768 Z" id="Fill-7" fill="#233881"></path>
                        <path d="M24.2354619,0.227403315 C37.620389,0.227403315 48.4709238,11.1457403 48.4709238,24.6137017 C48.4709238,38.0819337 37.620389,49.0002707 24.2354619,49.0002707 L0,49.0002707 L0,0.227403315 L24.2354619,0.227403315" id="Fill-8" fill="#00A3DA"></path>
                    </g>
                    <polygon id="Fill-10" fill="#233881" points="10.771436 38.1615249 32.3140389 38.1615249 32.3140389 11.0658785 10.771436 11.0658785"></polygon>
                    <polyline id="Fill-11" fill="#00A3DA" points="21.5426029 21.9040829 21.5426029 11.0658785 10.771436 21.9040829 21.5426029 21.9040829"></polyline>
                    <polyline id="Fill-12" fill="#FFFFFE" points="10.771436 11.0658785 10.771436 21.9040829 21.5426029 11.0658785 10.771436 11.0658785"></polyline>
                </g>
            </g>
        </g>
    </g>
</svg>